<svg xmlns="http://www.w3.org/2000/svg" width="16" height="16" viewBox="0 0 16 16">
  <!-- body -->
  <rect x="5" y="5" width="6" height="7" fill="#f78166"/>
  <rect x="6" y="3" width="4" height="3" fill="#f78166"/>
  <!-- eyes -->
  <rect x="6" y="4" width="1" height="1" fill="#0d1117"/>
  <rect x="9" y="4" width="1" height="1" fill="#0d1117"/>
  <!-- antennae -->
  <rect x="6" y="2" width="1" height="2" fill="#f78166"/>
  <rect x="9" y="2" width="1" height="2" fill="#f78166"/>
  <rect x="5" y="2" width="1" height="1" fill="#f78166"/>
  <rect x="10" y="2" width="1" height="1" fill="#f78166"/>
  <!-- body segments -->
  <rect x="5" y="7" width="6" height="1" fill="#da3633"/>
  <rect x="5" y="9" width="6" height="1" fill="#da3633"/>
  <!-- legs -->
  <rect x="3" y="6" width="2" height="1" fill="#f78166"/>
  <rect x="11" y="6" width="2" height="1" fill="#f78166"/>
  <rect x="3" y="8" width="2" height="1" fill="##f78166"/>
  <rect x="11" y="8" width="2" height="1" fill="#f78166"/>
  <rect x="4" y="10" width="2" height="1" fill="#f78166"/>
  <rect x="10" y="10" width="2" height="1" fill="#f78166"/>
  <rect x="3" y="7" width="1" height="1" fill="#f78166"/>
  <rect x="12" y="7" width="1" height="1" fill="#f78166"/>
  <rect x="3" y="9" width="1" height="1" fill="#f78166"/>
  <rect x="12" y="9" width="1" height="1" fill="#f78166"/>
  <rect x="3" y="11" width="1" height="1" fill="#f78166"/>
  <rect x="12" y="11" width="1" height="1" fill="#f78166"/>
  <!-- tail -->
  <rect x="6" y="12" width="4" height="1" fill="#f78166"/>
  <rect x="7" y="13" width="2" height="1" fill="#f78166"/>
</svg>